PathFileType	4	(X/Y/Z)	25_coords_data.trc
DataRate	CameraRate	NumFrames	NumMarkers	Units	OrigDataRate	OrigDataStartFrame	OrigNumFrames
30.0	30.0	8	21	m	30.0	44	65
Frame#	Time	THUMB_TIP	THUMB_IP	THUMB_MCP	THUMB_CMC	INDEX_TIP	INDEX_DIP	INDEX_PIP	INDEX_MCP	MIDDLE_TIP	MIDDLE_DIP	MIDDLE_PIP	MIDDLE_MCP	RING_TIP	RING_DIP	RING_PIP	RING_MCP	PINKY_TIP	PINKY_DIP	PINKY_PIP	PINKY_MCP	WRIST
X1	Y1	Z1	X2	Y2	Z2	X3	Y3	Z3	X4	Y4	Z4	X5	Y5	Z5	X6	Y6	Z6	X7	Y7	Z7	X8	Y8	Z8	X9	Y9	Z9	X10	Y10	Z10	X11	Y11	Z11	X12	Y12	Z12	X13	Y13	Z13	X14	Y14	Z14	X15	Y15	Z15	X16	Y16	Z16	X17	Y17	Z17	X18	Y18	Z18	X19	Y19	Z19	X20	Y20	Z20	X21	Y21	Z21
43	1.4333333333333333	-0.021969999313354492	-0.06546549987792968	0.875927001953125	-0.027353599548339845	-0.04750469970703125	0.8987990112304688	-0.03522159957885742	-0.03161079978942871	0.9260430297851563	-0.04458190155029297	-0.003981620073318481	0.9481539916992188	0.0034309399127960202	-0.015281599998474121	0.8162260131835938	-0.010985899925231933	-0.015500399589538574	0.835364013671875	-0.026528099060058593	-0.015167400360107422	0.853219970703125	-0.04958359909057617	-0.012300200462341308	0.8891610107421875	0.010112299919128417	0.017470500946044923	0.814302001953125	-0.008928799629211425	0.014164699554443359	0.82968701171875	-0.03166390037536621	0.011928799629211426	0.84914599609375	-0.05529800033569336	0.01070300006866455	0.8878330078125	0.006181759834289551	0.041075401306152344	0.8215650024414063	-0.011889699935913087	0.03825389862060547	0.83785498046875	-0.032499401092529294	0.03499990081787109	0.8569359741210938	-0.05391139984130859	0.030449899673461914	0.8926799926757812	-0.011025500297546387	0.0670895004272461	0.841677978515625	-0.022126399993896484	0.06196170043945313	0.8593200073242188	-0.032944000244140625	0.056535598754882815	0.874823974609375	-0.04844469833374023	0.04774100112915039	0.9003699951171875	-0.07322080230712891	0.01835479927062988	0.971333984375
44	1.4666666666666666	-0.018544599533081053	-0.06090409851074219	0.8740289916992188	-0.025164100646972658	-0.044051498413085935	0.897052001953125	-0.0336510009765625	-0.029240100860595704	0.924406982421875	-0.04389199829101562	-0.0022969999313354494	0.947302001953125	0.003675600051879883	-0.013551400184631348	0.81777099609375	-0.012197199821472169	-0.014286499977111816	0.8356849975585937	-0.028833200454711914	-0.014524399757385254	0.8527449951171875	-0.0515619010925293	-0.012166600227355957	0.888426025390625	0.009877579689025879	0.01815970039367676	0.8172069702148438	-0.01012950038909912	0.014753199577331544	0.8307039794921875	-0.03413069915771484	0.012451800346374511	0.84885302734375	-0.057881900787353516	0.010846400260925293	0.8872319946289062	0.005629600048065186	0.04075019836425781	0.8241680297851562	-0.013477100372314452	0.03812820053100586	0.83839697265625	-0.03539410018920899	0.03525479888916016	0.8562310180664062	-0.05659109878540039	0.03069820022583008	0.8919340209960938	-0.012941900253295899	0.06550409698486329	0.8406290283203125	-0.02450819969177246	0.06107979965209961	0.858239990234375	-0.0356156997680664	0.05620830154418945	0.8737579956054687	-0.051034900665283205	0.048217098236083986	0.8994099731445313	-0.07258580017089844	0.018649700164794922	0.9712969970703125
45	1.5	-0.014244600296020508	-0.05567470169067383	0.87239697265625	-0.02232469940185547	-0.04013050079345703	0.8956580200195312	-0.03202909851074219	-0.02652869987487793	0.9234210205078125	-0.04336849975585937	-0.000477770000696182	0.9465609741210937	0.004763169765472412	-0.010539299964904785	0.8196580200195313	-0.01246030044555664	-0.011960599899291992	0.8364400024414063	-0.03012299919128418	-0.012983599662780761	0.852166015625	-0.053060298919677736	-0.011379599571228027	0.8881209716796875	0.010401300430297852	0.02022890090942383	0.8203709716796875	-0.010458900451660156	0.01655229949951172	0.832530029296875	-0.03525749969482422	0.01380519962310791	0.8484739990234375	-0.05964030075073242	0.011601099967956543	0.8868389892578125	0.005588840007781983	0.04200429916381836	0.8266190185546874	-0.014189800262451173	0.03937369918823242	0.8392050170898437	-0.037219100952148435	0.036497798919677735	0.8559099731445312	-0.058592700958251955	0.03148069953918457	0.891593017578125	-0.014194000244140624	0.06550559997558594	0.8403380126953125	-0.02627840042114258	0.06135990142822265	0.8578280029296875	-0.037710498809814454	0.05670740127563476	0.8731599731445312	-0.053182498931884765	0.04898509979248047	0.8990170288085938	-0.07234960174560547	0.01903630065917969	0.97085302734375
46	1.5333333333333334	-0.012019000053405761	-0.05098080062866211	0.870843994140625	-0.020880500793457032	-0.03649079895019531	0.894583984375	-0.03111709976196289	-0.024035200119018555	0.9225250244140625	-0.043109298706054684	0.00107600998878479	0.9461190185546875	0.006937910079956055	-0.007013400077819824	0.8220830078125	-0.01114550018310547	-0.009266619682312011	0.8374310302734375	-0.029706499099731446	-0.010938300132751464	0.8521950073242187	-0.05342060089111328	-0.010307499885559082	0.8875390014648438	0.0120733003616333	0.022522300720214845	0.8229190063476562	-0.009438850402832032	0.018636299133300782	0.8343809814453125	-0.035067798614501954	0.01542430019378662	0.8487550048828125	-0.06026630020141602	0.012623600006103516	0.8863619995117188	0.006456910133361816	0.0440000991821289	0.8289119873046875	-0.013909999847412109	0.0412036018371582	0.840343994140625	-0.03764260101318359	0.038053901672363284	0.85614697265625	-0.05960169982910156	0.03254119873046875	0.891447998046875	-0.01443179988861084	0.0667322998046875	0.8412680053710937	-0.026841400146484375	0.06257160186767578	0.857864013671875	-0.03876670074462891	0.057960800170898434	0.8729920043945313	-0.05437480163574219	0.05007590103149414	0.89872900390625	-0.0725790023803711	0.019864599227905275	0.9706669921875
47	1.5666666666666667	-0.012987799644470215	-0.04846630096435547	0.8694459838867188	-0.021581499099731446	-0.03452489852905274	0.8933889770507812	-0.03153989982604981	-0.022631599426269532	0.9220369873046875	-0.04330780029296875	0.002066270112991333	0.946052001953125	0.008909210205078125	-0.004632540225982666	0.8241799926757812	-0.009798399925231934	-0.007244609832763672	0.8386329956054688	-0.029187299728393554	-0.009163530349731445	0.8525430297851563	-0.05371179962158203	-0.009197609901428223	0.88722802734375	0.013968799591064453	0.023831199645996094	0.8253729858398438	-0.00792572021484375	0.01999570083618164	0.8357650146484376	-0.03411320114135742	0.016786800384521485	0.8493040161132812	-0.06053170013427735	0.013812000274658204	0.8862589721679688	0.00794228982925415	0.045074901580810546	0.8309019775390625	-0.012809399604797364	0.04242890167236328	0.8416699829101563	-0.03715499877929687	0.0394103012084961	0.8565869750976562	-0.0598838996887207	0.03374700164794922	0.8914719848632813	-0.013869400024414063	0.06781050109863282	0.841489013671875	-0.02658180046081543	0.06372669982910156	0.858323974609375	-0.03846189880371094	0.05907740020751953	0.873364013671875	-0.05450709915161133	0.05122100067138672	0.8988250122070313	-0.07283580017089844	0.02072879981994629	0.970427978515625
48	1.6	-0.012985899925231933	-0.04665890121459961	0.8689290161132812	-0.02166309928894043	-0.033071098327636717	0.8929249877929688	-0.03168899917602539	-0.021658000946044923	0.9213790283203125	-0.04320949935913086	0.0029188299179077146	0.9456110229492187	0.009656009674072265	-0.002572439908981323	0.8249199829101562	-0.009249520301818848	-0.005418439865112304	0.8390659790039062	-0.028758399963378905	-0.007639299869537353	0.8527990112304688	-0.053980701446533205	-0.008019169807434083	0.887218994140625	0.014915200233459472	0.02537380027770996	0.8272739868164063	-0.007021289825439453	0.02148579978942871	0.8366939697265625	-0.03355350112915039	0.018247499465942382	0.8498359985351562	-0.060729598999023436	0.014996600151062012	0.8862949829101563	0.009257590293884278	0.046130199432373044	0.8331179809570313	-0.011826399803161622	0.04357479858398437	0.8429039916992187	-0.0364385986328125	0.040599800109863284	0.8571530151367187	-0.06007320022583008	0.034845699310302736	0.891552978515625	-0.013062600135803223	0.06855879974365234	0.842625	-0.025968099594116213	0.06454679870605469	0.8590180053710937	-0.038143798828125	0.05999050140380859	0.8738889770507813	-0.05474509811401367	0.05222480010986328	0.899051025390625	-0.07274420166015624	0.02149930000305176	0.9703670043945313
49	1.6333333333333333	-0.012708999633789063	-0.044790599822998045	0.868427001953125	-0.021412399291992186	-0.03149150085449219	0.8925650024414062	-0.031444799423217776	-0.02037529945373535	0.9212630004882812	-0.04301250076293945	0.0038610999584198	0.9458560180664063	0.008322529792785645	-0.001029950022697448	0.8231380004882812	-0.009733090400695801	-0.003987220048904419	0.8382429809570312	-0.02871980094909668	-0.0062413902282714845	0.8528400268554688	-0.053852500915527346	-0.006943560123443603	0.8871630249023438	0.014392800331115722	0.027022899627685545	0.8261900024414063	-0.0072995700836181645	0.022927799224853516	0.8362960205078125	-0.03358089828491211	0.01944179916381836	0.8499450073242187	-0.060816699981689454	0.015980799674987792	0.8862869873046875	0.008968239784240722	0.047601299285888674	0.8329530029296875	-0.012050800323486328	0.04485110092163086	0.8430430297851562	-0.036496898651123044	0.041673599243164064	0.8573989868164062	-0.06023400115966797	0.03588729858398437	0.8917940063476563	-0.01310949993133545	0.06964800262451172	0.842760009765625	-0.025970300674438476	0.06560800170898437	0.859281005859375	-0.03820790100097656	0.06097249984741211	0.8741229858398437	-0.05489680099487305	0.053238399505615236	0.8995809936523438	-0.07272149658203125	0.0221033992767334	0.9704439697265625
50	1.6666666666666667	-0.012457599639892578	-0.04303879928588867	0.867927978515625	-0.02122279930114746	-0.030005800247192384	0.8922169799804688	-0.03125	-0.019322599411010742	0.9210029907226562	-0.04295500183105469	0.00467317008972168	0.9457109985351563	0.008033419609069824	0.0008029620051383971	0.8226339721679687	-0.009814550399780273	-0.0024147899150848387	0.8380120239257812	-0.02867009925842285	-0.004761809825897217	0.8525339965820312	-0.05380989837646484	-0.00579302978515625	0.8871640014648438	0.013775799751281738	0.028821399688720703	0.8255139770507812	-0.007752399921417236	0.02453429985046387	0.83593701171875	-0.03394459915161133	0.02082349967956543	0.8497969970703125	-0.06088240051269531	0.016997800827026368	0.8862310180664063	0.008187060356140136	0.04936190032958984	0.8326279907226563	-0.012642900466918945	0.04641590118408203	0.84327197265625	-0.03698460006713867	0.04297010040283203	0.8573270263671875	-0.06036600112915039	0.036844100952148434	0.8918740234375	-0.013485300064086913	0.07087590026855468	0.8431510009765625	-0.02624810028076172	0.06673919677734375	0.8595570068359375	-0.03873910140991211	0.06200239944458008	0.8744010009765625	-0.055118900299072265	0.05422869873046875	0.8998250122070313	-0.07271510314941407	0.022677799224853516	0.970655029296875
